<?xml version="1.0" encoding="UTF-8" standalone="no"?><svg width="100%" height="100%" viewBox="0 0 32 32" version="1.1" xmlns="http://www.w3.org/2000/svg"><path d="M2,2l0,28l28,0l0,-28l-28,0Zm15.53,13.107l0,2.242l-3.398,0l0,9.588l-2.588,0l0,-9.588l-3.398,0l0,-2.242l9.384,0Zm1.463,9.078c0.512,0.936 1.526,1.638 2.822,1.638c1.148,0 1.882,-0.574 1.882,-1.368c0,-0.95 -0.746,-1.287 -1.996,-1.834l-0.686,-0.294c-1.978,-0.843 -3.293,-1.899 -3.293,-4.131c0,-2.056 1.567,-3.622 4.015,-3.622c1.743,0 2.996,0.607 3.899,2.195l-2.135,1.371c-0.47,-0.843 -0.977,-1.175 -1.764,-1.175c-0.803,0 -1.312,0.509 -1.312,1.175c0,0.822 0.509,1.155 1.685,1.664l0.686,0.294c2.329,0.999 3.644,2.017 3.644,4.306c0,2.468 -1.939,3.82 -4.543,3.82c-2.546,0 -4.191,-1.213 -4.996,-2.803l2.092,-1.236Z" style="fill:#ede9e9;fill-rule:evenodd;"/></svg>
