<svg xmlns="http://www.w3.org/2000/svg" viewBox="0 0 640 400">
  <rect width="640" height="400" fill="#13161c"/>
  <!-- top bar -->
  <rect x="0" y="0" width="640" height="34" fill="#1a1e26"/>
  <circle cx="20" cy="17" r="7" fill="#e8973a" opacity=".85"/>
  <rect x="38" y="12" width="90" height="10" rx="2" fill="#3a4150"/>
  <rect x="540" y="10" width="80" height="14" rx="7" fill="#2a303c"/>
  <!-- sidebar -->
  <rect x="0" y="34" width="150" height="366" fill="#171b22"/>
  <rect x="16" y="56" width="100" height="9" rx="2" fill="#39404e"/>
  <rect x="16" y="84" width="118" height="22" rx="4" fill="#232936"/>
  <rect x="16" y="114" width="118" height="22" rx="4" fill="#1d222c"/>
  <rect x="16" y="144" width="118" height="22" rx="4" fill="#1d222c"/>
  <rect x="16" y="188" width="80" height="9" rx="2" fill="#39404e"/>
  <rect x="16" y="208" width="118" height="30" rx="4" fill="#1d222c"/>
  <rect x="16" y="246" width="118" height="30" rx="4" fill="#1d222c"/>
  <rect x="16" y="300" width="118" height="26" rx="13" fill="#e8973a" opacity=".8"/>
  <!-- map area -->
  <rect x="150" y="34" width="310" height="366" fill="#10131a"/>
  <path d="M170 120 Q240 90 300 130 T440 110" stroke="#242b38" stroke-width="2" fill="none"/>
  <path d="M160 220 Q260 190 330 240 T450 230" stroke="#242b38" stroke-width="2" fill="none"/>
  <path d="M200 340 Q280 300 360 330 T450 320" stroke="#242b38" stroke-width="2" fill="none"/>
  <path d="M250 60 Q230 180 270 260 T240 390" stroke="#242b38" stroke-width="2" fill="none"/>
  <path d="M380 50 Q400 160 370 250 T400 390" stroke="#242b38" stroke-width="2" fill="none"/>
  <!-- pins -->
  <circle cx="238" cy="128" r="9" fill="#e8973a"/>
  <circle cx="238" cy="128" r="14" fill="none" stroke="#e8973a" opacity=".4"/>
  <circle cx="318" cy="196" r="9" fill="#7fb069"/>
  <circle cx="286" cy="286" r="9" fill="#e8973a"/>
  <circle cx="390" cy="150" r="9" fill="#7fb069"/>
  <circle cx="366" cy="310" r="9" fill="#c94f4f"/>
  <circle cx="204" cy="230" r="9" fill="#7fb069"/>
  <!-- right cards -->
  <rect x="460" y="34" width="180" height="366" fill="#171b22"/>
  <rect x="474" y="52" width="152" height="86" rx="5" fill="#1d222c"/>
  <rect x="484" y="64" width="86" height="9" rx="2" fill="#414958"/>
  <rect x="484" y="80" width="120" height="7" rx="2" fill="#2c3340"/>
  <rect x="484" y="93" width="104" height="7" rx="2" fill="#2c3340"/>
  <rect x="484" y="112" width="56" height="14" rx="7" fill="#e8973a" opacity=".75"/>
  <rect x="474" y="150" width="152" height="86" rx="5" fill="#1d222c"/>
  <rect x="484" y="162" width="76" height="9" rx="2" fill="#414958"/>
  <rect x="484" y="178" width="120" height="7" rx="2" fill="#2c3340"/>
  <rect x="484" y="191" width="96" height="7" rx="2" fill="#2c3340"/>
  <rect x="484" y="210" width="56" height="14" rx="7" fill="#2a303c"/>
  <rect x="474" y="248" width="152" height="86" rx="5" fill="#1d222c"/>
  <rect x="484" y="260" width="92" height="9" rx="2" fill="#414958"/>
  <rect x="484" y="276" width="120" height="7" rx="2" fill="#2c3340"/>
  <rect x="484" y="289" width="110" height="7" rx="2" fill="#2c3340"/>
  <rect x="484" y="308" width="56" height="14" rx="7" fill="#2a303c"/>
</svg>
